G04 #@! TF.GenerationSoftware,KiCad,Pcbnew,(6.0.2)*
G04 #@! TF.CreationDate,2022-05-10T09:25:42-07:00*
G04 #@! TF.ProjectId,Z80-FDC,5a38302d-4644-4432-9e6b-696361645f70,1.2*
G04 #@! TF.SameCoordinates,Original*
G04 #@! TF.FileFunction,Soldermask,Bot*
G04 #@! TF.FilePolarity,Negative*
%FSLAX46Y46*%
G04 Gerber Fmt 4.6, Leading zero omitted, Abs format (unit mm)*
G04 Created by KiCad (PCBNEW (6.0.2)) date 2022-05-10 09:25:42*
%MOMM*%
%LPD*%
G01*
G04 APERTURE LIST*
%ADD10C,1.490980*%
%ADD11R,1.490980X1.490980*%
%ADD12R,1.524000X1.524000*%
%ADD13C,1.524000*%
%ADD14C,3.200000*%
%ADD15C,1.397000*%
%ADD16R,1.397000X1.397000*%
%ADD17R,2.200000X2.200000*%
%ADD18C,2.200000*%
G04 APERTURE END LIST*
D10*
X157480000Y-123678000D03*
D11*
X157480000Y-121178000D03*
D12*
X167640000Y-124460000D03*
D13*
X170180000Y-124460000D03*
X172720000Y-124460000D03*
X175260000Y-124460000D03*
X177800000Y-124460000D03*
X180340000Y-124460000D03*
X182880000Y-124460000D03*
X185420000Y-124460000D03*
X187960000Y-124460000D03*
X190500000Y-124460000D03*
D14*
X130225800Y-95631000D03*
D12*
X127000000Y-127000000D03*
D13*
X129540000Y-127000000D03*
X132080000Y-127000000D03*
X134620000Y-127000000D03*
X137160000Y-127000000D03*
X139700000Y-127000000D03*
X142240000Y-127000000D03*
X144780000Y-127000000D03*
X147320000Y-127000000D03*
X149860000Y-127000000D03*
X152400000Y-127000000D03*
X154940000Y-127000000D03*
X157480000Y-127000000D03*
X160020000Y-127000000D03*
X162560000Y-127000000D03*
X165100000Y-127000000D03*
X167640000Y-127000000D03*
X170180000Y-127000000D03*
X172720000Y-127000000D03*
X175260000Y-127000000D03*
X177800000Y-127000000D03*
X180340000Y-127000000D03*
X182880000Y-127000000D03*
X185420000Y-127000000D03*
X187960000Y-127000000D03*
X190500000Y-127000000D03*
X193040000Y-127000000D03*
X195580000Y-127000000D03*
X198120000Y-127000000D03*
X200660000Y-127000000D03*
X203200000Y-127000000D03*
X205740000Y-127000000D03*
X208280000Y-127000000D03*
X210820000Y-127000000D03*
X213360000Y-127000000D03*
X215900000Y-127000000D03*
X218440000Y-127000000D03*
X220980000Y-127000000D03*
X223520000Y-127000000D03*
D15*
X185420000Y-105410000D03*
X185420000Y-100330000D03*
X129540000Y-106045000D03*
X129540000Y-100965000D03*
X157480000Y-100330000D03*
X157480000Y-105410000D03*
D12*
X163830000Y-86360000D03*
D13*
X161290000Y-86360000D03*
D15*
X129540000Y-113030000D03*
X129540000Y-118110000D03*
X160020000Y-96520000D03*
X165100000Y-96520000D03*
X157480000Y-113030000D03*
X157480000Y-118110000D03*
X220980000Y-102870000D03*
X220980000Y-97790000D03*
X215900000Y-102969060D03*
X215900000Y-107850940D03*
X159931316Y-92717500D03*
X159931316Y-90177500D03*
X165011316Y-93035000D03*
X165011316Y-89860000D03*
X182880000Y-111760000D03*
X182880000Y-119380000D03*
D16*
X162560000Y-119380000D03*
D15*
X165100000Y-119380000D03*
X167640000Y-119380000D03*
X170180000Y-119380000D03*
X172720000Y-119380000D03*
X175260000Y-119380000D03*
X177800000Y-119380000D03*
X177800000Y-111760000D03*
X175260000Y-111760000D03*
X172720000Y-111760000D03*
X170180000Y-111760000D03*
X167640000Y-111760000D03*
X165100000Y-111760000D03*
X162560000Y-111760000D03*
X134620000Y-111760000D03*
X137160000Y-111760000D03*
X139700000Y-111760000D03*
X142240000Y-111760000D03*
X144780000Y-111760000D03*
X147320000Y-111760000D03*
X149860000Y-111760000D03*
X152400000Y-111760000D03*
X152400000Y-119380000D03*
X149860000Y-119380000D03*
X147320000Y-119380000D03*
X144780000Y-119380000D03*
X142240000Y-119380000D03*
X139700000Y-119380000D03*
X137160000Y-119380000D03*
D16*
X134620000Y-119380000D03*
X162560000Y-106680000D03*
D15*
X165100000Y-106680000D03*
X167640000Y-106680000D03*
X170180000Y-106680000D03*
X172720000Y-106680000D03*
X175260000Y-106680000D03*
X177800000Y-106680000D03*
X177800000Y-99060000D03*
X175260000Y-99060000D03*
X172720000Y-99060000D03*
X170180000Y-99060000D03*
X167640000Y-99060000D03*
X165100000Y-99060000D03*
X162560000Y-99060000D03*
D16*
X157480000Y-95250000D03*
D15*
X157480000Y-92710000D03*
X157480000Y-90170000D03*
X157480000Y-87630000D03*
X149860000Y-87630000D03*
X149860000Y-90170000D03*
X149860000Y-92710000D03*
X149860000Y-95250000D03*
D16*
X177800000Y-92710000D03*
D15*
X180340000Y-92710000D03*
X182880000Y-92710000D03*
X185420000Y-92710000D03*
X187960000Y-92710000D03*
X190500000Y-92710000D03*
D17*
X143470000Y-89535000D03*
D18*
X138470000Y-89535000D03*
D16*
X193040000Y-105410000D03*
D15*
X190500000Y-107950000D03*
X193040000Y-107950000D03*
X190500000Y-110490000D03*
X193040000Y-110490000D03*
X190500000Y-113030000D03*
X193040000Y-115570000D03*
X193040000Y-113030000D03*
X195580000Y-115570000D03*
X195580000Y-113030000D03*
X198120000Y-115570000D03*
X198120000Y-113030000D03*
X200660000Y-115570000D03*
X200660000Y-113030000D03*
X203200000Y-115570000D03*
X203200000Y-113030000D03*
X205740000Y-115570000D03*
X208280000Y-113030000D03*
X205740000Y-113030000D03*
X208280000Y-110490000D03*
X205740000Y-110490000D03*
X208280000Y-107950000D03*
X205740000Y-107950000D03*
X208280000Y-105410000D03*
X205740000Y-105410000D03*
X208280000Y-102870000D03*
X205740000Y-102870000D03*
X208280000Y-100330000D03*
X205740000Y-97790000D03*
X205740000Y-100330000D03*
X203200000Y-97790000D03*
X203200000Y-100330000D03*
X200660000Y-97790000D03*
X200660000Y-100330000D03*
X198120000Y-97790000D03*
X198120000Y-100330000D03*
X195580000Y-97790000D03*
X195580000Y-100330000D03*
X193040000Y-97790000D03*
X190500000Y-100330000D03*
X193040000Y-100330000D03*
X190500000Y-102870000D03*
X193040000Y-102870000D03*
X190500000Y-105410000D03*
D16*
X134620000Y-106680000D03*
D15*
X137160000Y-106680000D03*
X139700000Y-106680000D03*
X142240000Y-106680000D03*
X144780000Y-106680000D03*
X147320000Y-106680000D03*
X149860000Y-106680000D03*
X152400000Y-106680000D03*
X152400000Y-99060000D03*
X149860000Y-99060000D03*
X147320000Y-99060000D03*
X144780000Y-99060000D03*
X142240000Y-99060000D03*
X139700000Y-99060000D03*
X137160000Y-99060000D03*
X134620000Y-99060000D03*
X185420000Y-111760000D03*
X185420000Y-119380000D03*
D12*
X213360000Y-82550000D03*
D13*
X213360000Y-85090000D03*
X210820000Y-82550000D03*
X210820000Y-85090000D03*
X208280000Y-82550000D03*
X208280000Y-85090000D03*
X205740000Y-82550000D03*
X205740000Y-85090000D03*
X203200000Y-82550000D03*
X203200000Y-85090000D03*
X200660000Y-82550000D03*
X200660000Y-85090000D03*
X198120000Y-82550000D03*
X198120000Y-85090000D03*
X195580000Y-82550000D03*
X195580000Y-85090000D03*
X193040000Y-82550000D03*
X193040000Y-85090000D03*
X190500000Y-82550000D03*
X190500000Y-85090000D03*
X187960000Y-82550000D03*
X187960000Y-85090000D03*
X185420000Y-82550000D03*
X185420000Y-85090000D03*
X182880000Y-82550000D03*
X182880000Y-85090000D03*
X180340000Y-82550000D03*
X180340000Y-85090000D03*
X177800000Y-82550000D03*
X177800000Y-85090000D03*
X175260000Y-82550000D03*
X175260000Y-85090000D03*
X172720000Y-82550000D03*
X172720000Y-85090000D03*
D15*
X220980000Y-107950000D03*
X220980000Y-113030000D03*
M02*
