M48
; DRILL file {KiCad (6.0.2)} date Tue May 10 09:25:49 2022
; FORMAT={-:-/ absolute / inch / decimal}
; #@! TF.CreationDate,2022-05-10T09:25:49-07:00
; #@! TF.GenerationSoftware,Kicad,Pcbnew,(6.0.2)
; #@! TF.FileFunction,Plated,1,2,PTH
FMAT,2
INCH
; #@! TA.AperFunction,Plated,PTH,ViaDrill
T1C0.0118
; #@! TA.AperFunction,Plated,PTH,ComponentDrill
T2C0.0315
; #@! TA.AperFunction,Plated,PTH,ComponentDrill
T3C0.0320
; #@! TA.AperFunction,Plated,PTH,ComponentDrill
T4C0.0400
; #@! TA.AperFunction,Plated,PTH,ComponentDrill
T5C0.0551
%
G90
G05
T1
X5.0Y-4.8
X5.45Y-4.1
X5.45Y-4.3
X5.7Y-3.775
X5.75Y-3.975
X5.75Y-4.5756
X5.775Y-4.0625
X5.85Y-3.875
X5.85Y-4.775
X5.95Y-4.225
X5.975Y-4.0125
X6.0625Y-4.2375
X6.325Y-4.6256
X6.5625Y-4.0125
X6.675Y-4.325
X6.925Y-4.3256
X7.0Y-4.6
X7.375Y-3.75
X7.375Y-3.8
X7.4Y-4.7
X7.4244Y-4.45
X7.425Y-4.1
X7.425Y-4.2
X7.5Y-3.8
X7.6Y-3.5
X7.6Y-3.55
X7.65Y-4.15
X7.7Y-4.0506
X7.7Y-4.1
X7.7Y-4.25
X7.7Y-4.35
X8.0Y-3.45
X8.0Y-4.05
X8.0Y-4.35
X8.7Y-4.8
T2
X6.2Y-4.7708
X6.2Y-4.8692
T3
X5.1Y-3.975
X5.1Y-4.175
X5.1Y-4.45
X5.1Y-4.65
X5.3Y-3.9
X5.3Y-4.2
X5.3Y-4.4
X5.3Y-4.7
X5.4Y-3.9
X5.4Y-4.2
X5.4Y-4.4
X5.4Y-4.7
X5.5Y-3.9
X5.5Y-4.2
X5.5Y-4.4
X5.5Y-4.7
X5.6Y-3.9
X5.6Y-4.2
X5.6Y-4.4
X5.6Y-4.7
X5.7Y-3.9
X5.7Y-4.2
X5.7Y-4.4
X5.7Y-4.7
X5.8Y-3.9
X5.8Y-4.2
X5.8Y-4.4
X5.8Y-4.7
X5.9Y-3.45
X5.9Y-3.55
X5.9Y-3.65
X5.9Y-3.75
X5.9Y-3.9
X5.9Y-4.2
X5.9Y-4.4
X5.9Y-4.7
X6.0Y-3.9
X6.0Y-4.2
X6.0Y-4.4
X6.0Y-4.7
X6.2Y-3.45
X6.2Y-3.55
X6.2Y-3.65
X6.2Y-3.75
X6.2Y-3.95
X6.2Y-4.15
X6.2Y-4.45
X6.2Y-4.65
X6.2965Y-3.5503
X6.2965Y-3.6503
X6.3Y-3.8
X6.4Y-3.9
X6.4Y-4.2
X6.4Y-4.4
X6.4Y-4.7
X6.4965Y-3.5378
X6.4965Y-3.6628
X6.5Y-3.8
X6.5Y-3.9
X6.5Y-4.2
X6.5Y-4.4
X6.5Y-4.7
X6.6Y-3.9
X6.6Y-4.2
X6.6Y-4.4
X6.6Y-4.7
X6.7Y-3.9
X6.7Y-4.2
X6.7Y-4.4
X6.7Y-4.7
X6.8Y-3.9
X6.8Y-4.2
X6.8Y-4.4
X6.8Y-4.7
X6.9Y-3.9
X6.9Y-4.2
X6.9Y-4.4
X6.9Y-4.7
X7.0Y-3.65
X7.0Y-3.9
X7.0Y-4.2
X7.0Y-4.4
X7.0Y-4.7
X7.1Y-3.65
X7.2Y-3.65
X7.2Y-4.4
X7.2Y-4.7
X7.3Y-3.65
X7.3Y-3.95
X7.3Y-4.15
X7.3Y-4.4
X7.3Y-4.7
X7.4Y-3.65
X7.5Y-3.65
X7.5Y-3.95
X7.5Y-4.05
X7.5Y-4.15
X7.5Y-4.25
X7.5Y-4.35
X7.5Y-4.45
X7.6Y-3.85
X7.6Y-3.95
X7.6Y-4.05
X7.6Y-4.15
X7.6Y-4.25
X7.6Y-4.35
X7.6Y-4.45
X7.6Y-4.55
X7.7Y-3.85
X7.7Y-3.95
X7.7Y-4.45
X7.7Y-4.55
X7.8Y-3.85
X7.8Y-3.95
X7.8Y-4.45
X7.8Y-4.55
X7.9Y-3.85
X7.9Y-3.95
X7.9Y-4.45
X7.9Y-4.55
X8.0Y-3.85
X8.0Y-3.95
X8.0Y-4.45
X8.0Y-4.55
X8.1Y-3.85
X8.1Y-3.95
X8.1Y-4.05
X8.1Y-4.15
X8.1Y-4.25
X8.1Y-4.35
X8.1Y-4.45
X8.1Y-4.55
X8.2Y-3.95
X8.2Y-4.05
X8.2Y-4.15
X8.2Y-4.25
X8.2Y-4.35
X8.2Y-4.45
X8.5Y-4.0539
X8.5Y-4.2461
X8.7Y-3.85
X8.7Y-4.05
X8.7Y-4.25
X8.7Y-4.45
T4
X5.0Y-5.0
X5.1Y-5.0
X5.2Y-5.0
X5.3Y-5.0
X5.4Y-5.0
X5.5Y-5.0
X5.6Y-5.0
X5.7Y-5.0
X5.8Y-5.0
X5.9Y-5.0
X6.0Y-5.0
X6.1Y-5.0
X6.2Y-5.0
X6.3Y-5.0
X6.35Y-3.4
X6.4Y-5.0
X6.45Y-3.4
X6.5Y-5.0
X6.6Y-4.9
X6.6Y-5.0
X6.7Y-4.9
X6.7Y-5.0
X6.8Y-3.25
X6.8Y-3.35
X6.8Y-4.9
X6.8Y-5.0
X6.9Y-3.25
X6.9Y-3.35
X6.9Y-4.9
X6.9Y-5.0
X7.0Y-3.25
X7.0Y-3.35
X7.0Y-4.9
X7.0Y-5.0
X7.1Y-3.25
X7.1Y-3.35
X7.1Y-4.9
X7.1Y-5.0
X7.2Y-3.25
X7.2Y-3.35
X7.2Y-4.9
X7.2Y-5.0
X7.3Y-3.25
X7.3Y-3.35
X7.3Y-4.9
X7.3Y-5.0
X7.4Y-3.25
X7.4Y-3.35
X7.4Y-4.9
X7.4Y-5.0
X7.5Y-3.25
X7.5Y-3.35
X7.5Y-4.9
X7.5Y-5.0
X7.6Y-3.25
X7.6Y-3.35
X7.6Y-5.0
X7.7Y-3.25
X7.7Y-3.35
X7.7Y-5.0
X7.8Y-3.25
X7.8Y-3.35
X7.8Y-5.0
X7.9Y-3.25
X7.9Y-3.35
X7.9Y-5.0
X8.0Y-3.25
X8.0Y-3.35
X8.0Y-5.0
X8.1Y-3.25
X8.1Y-3.35
X8.1Y-5.0
X8.2Y-3.25
X8.2Y-3.35
X8.2Y-5.0
X8.3Y-3.25
X8.3Y-3.35
X8.3Y-5.0
X8.4Y-3.25
X8.4Y-3.35
X8.4Y-5.0
X8.5Y-5.0
X8.6Y-5.0
X8.7Y-5.0
X8.8Y-5.0
T5
X5.4516Y-3.525
X5.6484Y-3.525
T0
M30
